<svg width="800" height="800" viewBox="0 0 800 800" fill="none" xmlns="http://www.w3.org/2000/svg">
<path fill-rule="evenodd" clip-rule="evenodd" d="M303.149 664.143C319.76 664.143 335.917 664.143 352.272 664.143C352.272 611.813 352.272 559.664 352.272 507.685C315.86 544.075 279.409 580.503 242.83 617.062C254.341 628.579 265.863 640.109 277.838 652.09C223.412 661.901 169.715 671.581 115.639 681.328C125.347 627.149 135.001 573.274 144.67 519.309C156.323 530.975 167.804 542.47 179.006 553.685C216.149 516.606 253.019 479.799 290.005 442.875C238.439 442.875 186.969 442.875 135.174 442.875C135.174 459.186 135.174 475.499 135.174 492.358C89.9263 460.822 45.1528 429.617 0.0252686 398.165C45.035 366.791 89.8368 335.561 135.008 304.074C135.008 320.666 135.008 336.895 135.008 353.301C187.278 353.301 239.257 353.301 290.825 353.301C254.57 316.965 218.13 280.441 181.585 243.814C170.47 254.977 158.992 266.503 147.1 278.447C137.356 224.084 127.701 170.216 117.974 115.95C171.993 125.687 225.715 135.371 279.527 145.071C267.922 156.72 256.417 168.269 245.013 179.716C282.136 216.868 318.94 253.701 355.673 290.461C355.673 239.168 355.673 187.54 355.673 135.611C339.454 135.611 323.176 135.611 306.344 135.611C337.808 90.2011 368.951 45.2541 400.307 0C431.599 45.1599 462.745 90.1082 494.124 135.395C477.623 135.395 461.435 135.395 445.052 135.395C445.052 187.783 445.052 239.891 445.052 291.371C481.184 255.26 517.656 218.809 554.486 182C543.207 170.783 531.649 159.287 519.785 147.489C573.957 137.722 627.656 128.04 681.685 118.299C671.978 172.477 662.333 226.309 652.692 280.119C641.133 268.53 629.631 257 618.31 245.649C581.023 282.873 544.178 319.656 507.08 356.691C558.884 356.691 610.385 356.691 662.124 356.691C662.124 340.423 662.124 324.153 662.124 307.244C707.389 338.792 752.197 370.021 797.301 401.458C752.289 432.834 707.476 464.072 662.289 495.57C662.289 478.935 662.289 462.696 662.289 446.285C610.03 446.285 558.047 446.285 506.392 446.285C542.703 482.655 579.154 519.166 615.578 555.649C626.705 544.532 638.204 533.041 650.208 521.047C659.974 575.534 669.627 629.39 679.358 683.675C625.367 673.94 571.652 664.254 518.094 654.596C529.574 643.086 541.072 631.558 552.444 620.156C515.143 582.83 478.311 545.973 441.585 509.223C441.585 560.538 441.585 612.187 441.585 664.047C457.937 664.047 474.17 664.047 490.961 664.047C459.512 709.436 428.344 754.423 397.02 799.631C365.7 754.427 334.541 709.453 303.149 664.143ZM398.673 490.594C448.744 490.589 489.211 450.004 489.198 399.802C489.185 349.604 448.69 308.998 398.654 309.011C348.59 309.024 308.128 349.618 308.137 399.822C308.147 450.05 348.591 490.6 398.673 490.594Z" fill="#085BB9"/>
<path d="M433.608 337.145C433.608 337.145 494.873 385.69 449.841 455.456C492.255 429.194 495.921 356.974 433.608 337.145Z" fill="#085BB9"/>
<path d="M399.114 330.249C389.361 341.39 372.605 330.315 378.365 318.179C388.445 336.482 399.114 321.694 399.114 321.694C399.114 321.694 409.783 336.482 419.863 318.179C425.623 330.315 408.867 341.39 399.114 330.249Z" fill="#085BB9"/>
<path d="M399.114 481.452L392.111 472.167C392.111 472.167 375.617 477.738 353.885 470.046C371.689 470.046 381.639 466.861 385.304 465.005C385.304 465.005 344.984 442.988 345.77 398.157C348.125 352.797 371.951 339.003 371.951 339.003C371.951 339.003 329.537 401.605 391.849 453.929L389.1 389.204C389.1 389.204 389.1 346.562 389.1 341.655C392.634 340.793 399.114 333.233 399.114 333.233C399.114 333.233 405.594 340.793 409.129 341.655C409.129 346.562 409.129 389.204 409.129 389.204L406.379 453.929C468.691 401.606 426.277 339.003 426.277 339.003C426.277 339.003 450.102 352.797 452.459 398.157C453.245 442.988 412.925 465.005 412.925 465.005C416.59 466.861 426.539 470.046 444.342 470.046C422.612 477.738 406.117 472.167 406.117 472.167L399.114 481.452Z" fill="#085BB9"/>
<path d="M364.62 337.145C364.62 337.145 303.355 385.69 348.388 455.456C305.973 429.194 302.308 356.974 364.62 337.145Z" fill="#085BB9"/>
</svg>
